HIERARCHY
ROOT Hips
{
	OFFSET 0.0000 0.0000 0.0000
	CHANNELS 6 Xposition Yposition Zposition Zrotation Xrotation Yrotation
	JOINT Ab
	{
		OFFSET -0.0000 8.1305 -0.0000
		CHANNELS 3 Zrotation Xrotation Yrotation
		JOINT Chest
		{
			OFFSET -0.0000 26.2902 -0.0000
			CHANNELS 3 Zrotation Xrotation Yrotation
			JOINT Neck
			{
				OFFSET -0.0000 26.2902 0.0000
				CHANNELS 3 Zrotation Xrotation Yrotation
				JOINT Head
				{
					OFFSET -0.0000 10.8167 0.0000
					CHANNELS 3 Zrotation Xrotation Yrotation
					End Site
					{
						OFFSET -0.0000 16.7167 0.0000
					}
				}
			}
			JOINT LeftCollar
			{
				OFFSET -0.0000 26.2902 0.0000
				CHANNELS 3 Zrotation Xrotation Yrotation
				JOINT LeftShoulder
				{
					OFFSET 19.6667 -0.0000 0.0000
					CHANNELS 3 Zrotation Xrotation Yrotation
					JOINT LeftElbow
					{
						OFFSET 27.2190 0.0000 0.0000
						CHANNELS 3 Zrotation Xrotation Yrotation
						JOINT LeftWrist
						{
							OFFSET 30.7431 0.0000 0.0000
							CHANNELS 3 Zrotation Xrotation Yrotation
							End Site
							{
								OFFSET 0.0000 -14.7500 0.0000
							}
						}
					}
				}
			}
			JOINT RightCollar
			{
				OFFSET -0.0000 26.2902 0.0000
				CHANNELS 3 Zrotation Xrotation Yrotation
				JOINT RightShoulder
				{
					OFFSET -19.6667 0.0000 0.0000
					CHANNELS 3 Zrotation Xrotation Yrotation
					JOINT RightElbow
					{
						OFFSET -27.2190 0.0000 0.0000
						CHANNELS 3 Zrotation Xrotation Yrotation
						JOINT RightWrist
						{
							OFFSET -30.7431 0.0000 0.0000
							CHANNELS 3 Zrotation Xrotation Yrotation
							End Site
							{
								OFFSET -0.0000 -14.7500 0.0000
							}
						}
					}
				}
			}
		}
	}
	JOINT LeftHip
	{
		OFFSET 11.8000 0.0000 0.0000
		CHANNELS 3 Zrotation Xrotation Yrotation
		JOINT LeftKnee
		{
			OFFSET -0.0000 -39.7832 0.0000
			CHANNELS 3 Zrotation Xrotation Yrotation
			JOINT LeftAnkle
			{
				OFFSET -0.0000 -41.7317 0.0000
				CHANNELS 3 Zrotation Xrotation Yrotation
				End Site
				{
					OFFSET -0.0000 -4.9167 16.7167
				}
			}
		}
	}
	JOINT RightHip
	{
		OFFSET -11.8000 0.0000 0.0000
		CHANNELS 3 Zrotation Xrotation Yrotation
		JOINT RightKnee
		{
			OFFSET -0.0000 -39.7832 0.0000
			CHANNELS 3 Zrotation Xrotation Yrotation
			JOINT RightAnkle
			{
				OFFSET -0.0000 -41.7317 0.0000
				CHANNELS 3 Zrotation Xrotation Yrotation
				End Site
				{
					OFFSET -0.0000 -4.9167 16.7167
				}
			}
		}
	}
}
MOTION
Frames: 11
Frame Time: 0.010000
-10.0962 87.8469 96.5962 358.0870 347.3743 183.0769 359.2044 349.2404 3.6270 2.4864 11.9410 3.4406 347.6878 345.3153 352.3966 9.1164 13.6213 352.9134 339.3350 357.2920 15.0235 315.8201 45.9000 1.8666 1.7596 358.7630 304.4496 95.3543 349.1636 339.7917 26.7047 355.9663 343.1971 28.7254 50.9337 20.8168 325.2845 335.4394 70.5408 258.1546 349.9159 339.1531 352.1114 325.8951 358.8668 358.8569 31.7270 2.8140 357.7982 348.8272 13.8636 358.2849 8.2950 5.0357 7.1904 16.3453 15.7433 352.5039 329.0541 317.9611 
-10.1111 87.4538 95.2407 358.1495 347.4965 182.9905 359.0826 349.0606 3.5716 2.3350 11.7406 3.4230 348.3622 345.9809 352.6231 8.8554 13.4011 353.0251 339.2516 357.2326 15.2080 315.9153 46.0230 1.5117 2.4396 358.3440 303.4744 95.6101 348.6270 341.2024 26.9617 355.9129 343.0487 30.0241 50.4474 19.0120 326.2574 336.7899 69.0377 257.9460 350.0173 340.0615 352.3315 325.8728 358.3142 357.7114 33.8141 1.6090 357.9983 347.1137 15.6007 358.1922 8.1564 3.7021 7.2471 18.6821 16.2895 353.5203 328.0645 318.9882 
-10.1620 87.1238 93.8408 358.0110 347.8664 182.9851 358.7292 349.1311 3.4528 2.2421 11.5666 3.3538 348.9635 346.5958 352.7955 8.6541 13.1096 353.1077 339.0838 357.1306 15.6845 316.3171 46.7453 0.5315 3.3739 357.7297 302.6581 96.0349 348.8432 342.3094 27.2811 355.8353 343.0524 31.5827 49.7916 16.8001 327.1747 338.0844 67.3794 258.2779 349.8059 340.9507 352.0685 326.0422 357.5671 357.4069 35.5847 0.3723 0.3901 348.3504 18.5496 357.9093 7.9770 2.3923 7.1515 21.7124 17.5429 354.8172 327.2507 319.8651 
-10.2171 86.8633 92.4985 357.6272 348.1732 183.1448 357.9816 349.1263 3.2309 2.3262 11.6571 3.1777 349.4216 346.7921 352.8470 8.5491 12.9362 353.1061 338.6684 356.9676 16.1707 317.3190 47.4171 359.0900 4.2575 357.1713 301.6268 96.4384 348.9573 343.8171 27.6172 355.7805 343.0428 32.9820 48.7772 14.8597 328.2035 339.5123 65.6007 257.6093 349.4354 342.0083 351.5155 326.4983 356.0371 356.6497 36.6012 0.8248 0.5711 347.7079 18.8471 357.3541 7.4773 1.4459 7.4246 25.0736 17.9122 356.2351 326.7621 320.8722 
-10.3478 86.6801 91.2816 356.7731 348.1055 183.1147 356.9540 348.7765 2.9753 2.2312 12.1061 3.0397 349.4571 346.3172 352.8698 8.8652 13.1167 353.1271 338.4014 356.8074 16.9872 318.4976 48.2165 356.6745 5.3379 356.4489 300.8216 97.1191 349.1694 345.5205 27.9521 355.7323 343.0864 34.0483 47.7458 13.4915 329.1577 340.8769 63.4870 257.4016 349.0399 343.8465 350.3436 326.6969 354.7353 356.1252 37.5020 1.8354 1.4684 347.5371 19.2371 356.0732 6.1537 0.5994 7.9752 29.1309 18.3573 357.7230 326.6393 321.7722 
-10.4712 86.5168 90.0727 356.0336 348.1797 183.3212 356.1051 348.6228 2.6392 2.0134 12.4932 2.8119 349.7956 345.9845 352.8816 8.6951 13.2554 353.1289 338.2137 356.6677 17.4904 319.4648 48.9422 354.4939 6.5040 355.6788 299.9378 97.3571 349.8466 347.2153 28.2752 355.7131 343.3018 35.5989 46.5784 11.5852 329.7742 341.9532 61.1185 257.6557 348.6377 344.5254 349.0664 327.3937 353.4259 355.9214 37.9548 2.4907 2.2732 347.0878 19.4909 354.9968 5.0198 0.7747 9.2114 32.9136 17.4406 359.2589 327.3126 322.6464 
-10.5698 86.4105 88.9070 355.4759 348.2567 183.6672 355.5312 348.5632 2.3112 1.6777 12.8215 2.5465 349.8857 345.7376 352.9127 8.8899 13.3697 353.1462 337.9111 356.5338 17.7873 320.6841 49.3178 352.3488 7.4274 355.1306 299.1102 97.3582 349.5388 347.8231 28.6493 355.7263 343.8264 37.3225 45.2695 9.1523 330.1730 342.8426 58.8664 258.3457 348.1336 344.5937 347.9922 328.3330 352.2767 355.7795 38.1469 2.8524 2.7328 346.5230 19.9955 354.0583 3.5787 359.8704 9.9698 37.1976 17.0056 0.5433 328.6202 323.7854 
-10.6181 86.3174 87.7267 355.0844 348.5899 183.6896 355.4039 348.6566 2.1166 1.0395 13.3179 2.4405 349.7695 345.5163 353.0457 9.3003 13.4651 353.2727 338.0675 356.5007 18.1838 321.2866 49.9448 350.1169 8.7628 354.1645 298.5875 96.2209 349.1025 347.7778 29.0682 355.8457 344.9183 39.3203 43.7869 6.1305 330.5549 343.7000 56.8404 258.2806 348.1801 345.0185 347.4448 329.5877 352.9097 356.6164 38.2201 1.8273 2.9327 345.9267 20.0870 353.2751 2.1824 359.6830 11.0341 41.4488 16.1322 2.0385 330.1773 324.7819 
-10.6766 86.2631 86.5449 354.9716 349.0257 183.8642 355.4680 349.0834 1.9988 0.5789 13.3370 2.3594 349.4289 345.9084 353.0014 9.9482 13.0536 353.1819 338.0287 356.4686 18.1485 321.8744 50.6468 348.7127 10.0198 353.2765 297.2789 97.2546 349.3168 350.1062 29.4596 355.9562 345.4487 40.5690 43.0462 3.7940 330.5429 344.2901 54.5159 258.0656 348.3262 344.9590 347.0650 331.0761 353.3177 357.6276 37.9953 1.4025 2.5815 345.2067 19.5968 352.6860 0.8786 359.5583 12.6470 45.3546 13.9745 2.1848 332.0827 325.9241 
-10.6778 86.2430 85.3120 355.0010 349.5265 183.8670 355.6273 349.4687 1.9660 0.2305 13.4317 2.3382 349.4322 345.9949 353.1710 10.1177 13.2251 353.3197 338.2899 356.5011 18.3173 322.3277 51.7082 346.6599 11.5676 352.0938 296.6677 97.8042 349.7153 352.3341 29.7161 356.0608 345.8735 41.5980 42.6237 1.6138 330.5492 344.8766 52.6103 258.1851 348.6210 344.9959 347.1406 332.5983 354.1240 358.3835 37.7500 1.1201 2.7614 344.6316 19.1220 352.3040 359.6665 0.5450 15.3755 48.8826 12.0950 0.3968 333.9915 324.9365 
-10.6685 86.2816 84.1211 355.1370 350.0359 183.9997 355.6771 350.0921 1.9586 0.2263 13.1713 2.3045 349.6486 346.1862 353.2822 9.7775 13.4737 353.3942 338.2516 356.4754 18.1087 322.8470 52.3180 345.3090 12.7590 351.2760 295.5145 98.5256 350.6444 354.5256 29.7096 356.1724 346.0547 42.7696 41.8795 359.4353 330.6589 345.4896 50.9779 258.4875 348.3742 344.7920 347.4396 334.0701 354.6229 358.6892 37.5911 0.5200 2.6325 344.0351 18.9918 352.0866 358.4154 0.6892 17.3848 52.3004 11.1177 359.4774 334.9631 323.7824 
